<mxfile host="app.diagrams.net" modified="2023-01-23T11:47:05.001Z" agent="5.0 (Windows NT 10.0; Win64; x64) AppleWebKit/537.36 (KHTML, like Gecko) Chrome/109.0.0.0 Safari/537.36" etag="CDdctZEAHgf6DHcslmtC" version="20.8.10" type="github">
  <diagram name="Page-1" id="K2JZThp_FPyRtK2NO4l3">
    <mxGraphModel dx="1434" dy="802" grid="1" gridSize="10" guides="1" tooltips="1" connect="1" arrows="1" fold="1" page="1" pageScale="1" pageWidth="850" pageHeight="1100" math="0" shadow="0">
      <root>
        <mxCell id="0" />
        <mxCell id="1" parent="0" />
        <mxCell id="QFLeuaDcNy5RBuMiF4bs-10" style="edgeStyle=orthogonalEdgeStyle;rounded=0;orthogonalLoop=1;jettySize=auto;html=1;exitX=0.5;exitY=1;exitDx=0;exitDy=0;fontSize=14;" edge="1" parent="1" source="QFLeuaDcNy5RBuMiF4bs-1" target="QFLeuaDcNy5RBuMiF4bs-6">
          <mxGeometry relative="1" as="geometry" />
        </mxCell>
        <mxCell id="QFLeuaDcNy5RBuMiF4bs-1" value="&lt;font style=&quot;font-size: 14px;&quot;&gt;&lt;b&gt;start&lt;/b&gt;&lt;/font&gt;" style="rounded=1;whiteSpace=wrap;html=1;" vertex="1" parent="1">
          <mxGeometry x="320" y="20" width="110" height="40" as="geometry" />
        </mxCell>
        <mxCell id="QFLeuaDcNy5RBuMiF4bs-4" value="&lt;font style=&quot;font-size: 14px;&quot;&gt;&lt;b&gt;end&lt;/b&gt;&lt;/font&gt;" style="rounded=1;whiteSpace=wrap;html=1;" vertex="1" parent="1">
          <mxGeometry x="330" y="680" width="100" height="40" as="geometry" />
        </mxCell>
        <mxCell id="QFLeuaDcNy5RBuMiF4bs-11" style="edgeStyle=orthogonalEdgeStyle;rounded=0;orthogonalLoop=1;jettySize=auto;html=1;fontSize=14;" edge="1" parent="1" source="QFLeuaDcNy5RBuMiF4bs-6" target="QFLeuaDcNy5RBuMiF4bs-12">
          <mxGeometry relative="1" as="geometry">
            <mxPoint x="375" y="240" as="targetPoint" />
          </mxGeometry>
        </mxCell>
        <mxCell id="QFLeuaDcNy5RBuMiF4bs-16" value="" style="edgeStyle=orthogonalEdgeStyle;rounded=0;orthogonalLoop=1;jettySize=auto;html=1;fontSize=14;" edge="1" parent="1" source="QFLeuaDcNy5RBuMiF4bs-6" target="QFLeuaDcNy5RBuMiF4bs-13">
          <mxGeometry relative="1" as="geometry" />
        </mxCell>
        <mxCell id="QFLeuaDcNy5RBuMiF4bs-6" value="input(5)" style="shape=parallelogram;perimeter=parallelogramPerimeter;whiteSpace=wrap;html=1;fixedSize=1;fontSize=14;" vertex="1" parent="1">
          <mxGeometry x="315" y="110" width="120" height="60" as="geometry" />
        </mxCell>
        <mxCell id="QFLeuaDcNy5RBuMiF4bs-17" style="edgeStyle=orthogonalEdgeStyle;rounded=0;orthogonalLoop=1;jettySize=auto;html=1;exitX=1;exitY=0.5;exitDx=0;exitDy=0;fontSize=14;" edge="1" parent="1" source="QFLeuaDcNy5RBuMiF4bs-12">
          <mxGeometry relative="1" as="geometry">
            <mxPoint x="600" y="450" as="targetPoint" />
            <Array as="points">
              <mxPoint x="550" y="390" />
              <mxPoint x="550" y="390" />
            </Array>
          </mxGeometry>
        </mxCell>
        <mxCell id="QFLeuaDcNy5RBuMiF4bs-21" style="edgeStyle=orthogonalEdgeStyle;rounded=0;orthogonalLoop=1;jettySize=auto;html=1;fontSize=15;" edge="1" parent="1" source="QFLeuaDcNy5RBuMiF4bs-12" target="QFLeuaDcNy5RBuMiF4bs-22">
          <mxGeometry relative="1" as="geometry">
            <mxPoint x="380" y="490" as="targetPoint" />
          </mxGeometry>
        </mxCell>
        <mxCell id="QFLeuaDcNy5RBuMiF4bs-12" value="i === 1" style="rhombus;whiteSpace=wrap;html=1;fontSize=14;" vertex="1" parent="1">
          <mxGeometry x="315" y="340" width="130" height="100" as="geometry" />
        </mxCell>
        <mxCell id="QFLeuaDcNy5RBuMiF4bs-13" value="i = 1 to 5" style="shape=hexagon;perimeter=hexagonPerimeter2;whiteSpace=wrap;html=1;fixedSize=1;fontSize=14;" vertex="1" parent="1">
          <mxGeometry x="255" y="210" width="240" height="60" as="geometry" />
        </mxCell>
        <mxCell id="QFLeuaDcNy5RBuMiF4bs-23" style="edgeStyle=orthogonalEdgeStyle;rounded=0;orthogonalLoop=1;jettySize=auto;html=1;exitX=0.5;exitY=1;exitDx=0;exitDy=0;fontSize=15;entryX=1;entryY=0.5;entryDx=0;entryDy=0;" edge="1" parent="1" source="QFLeuaDcNy5RBuMiF4bs-18" target="QFLeuaDcNy5RBuMiF4bs-22">
          <mxGeometry relative="1" as="geometry">
            <mxPoint x="600" y="560" as="targetPoint" />
            <Array as="points">
              <mxPoint x="600" y="560" />
            </Array>
          </mxGeometry>
        </mxCell>
        <mxCell id="QFLeuaDcNy5RBuMiF4bs-18" value="output(nyala)" style="shape=parallelogram;perimeter=parallelogramPerimeter;whiteSpace=wrap;html=1;fixedSize=1;fontSize=14;" vertex="1" parent="1">
          <mxGeometry x="540" y="450" width="120" height="60" as="geometry" />
        </mxCell>
        <mxCell id="QFLeuaDcNy5RBuMiF4bs-19" value="&lt;font style=&quot;font-size: 15px;&quot;&gt;&lt;b&gt;yes&lt;/b&gt;&lt;/font&gt;" style="text;html=1;strokeColor=none;fillColor=none;align=center;verticalAlign=middle;whiteSpace=wrap;rounded=0;fontSize=14;" vertex="1" parent="1">
          <mxGeometry x="490" y="390" width="60" height="30" as="geometry" />
        </mxCell>
        <mxCell id="QFLeuaDcNy5RBuMiF4bs-24" style="edgeStyle=orthogonalEdgeStyle;rounded=0;orthogonalLoop=1;jettySize=auto;html=1;fontSize=15;entryX=0;entryY=0.5;entryDx=0;entryDy=0;" edge="1" parent="1" source="QFLeuaDcNy5RBuMiF4bs-22" target="QFLeuaDcNy5RBuMiF4bs-13">
          <mxGeometry relative="1" as="geometry">
            <mxPoint x="200" y="230" as="targetPoint" />
            <Array as="points">
              <mxPoint x="160" y="560" />
              <mxPoint x="160" y="240" />
            </Array>
          </mxGeometry>
        </mxCell>
        <mxCell id="QFLeuaDcNy5RBuMiF4bs-30" style="edgeStyle=orthogonalEdgeStyle;rounded=0;orthogonalLoop=1;jettySize=auto;html=1;exitX=0.5;exitY=1;exitDx=0;exitDy=0;entryX=0.5;entryY=0;entryDx=0;entryDy=0;fontSize=16;" edge="1" parent="1" source="QFLeuaDcNy5RBuMiF4bs-22" target="QFLeuaDcNy5RBuMiF4bs-4">
          <mxGeometry relative="1" as="geometry" />
        </mxCell>
        <mxCell id="QFLeuaDcNy5RBuMiF4bs-22" value="i != 5" style="rhombus;whiteSpace=wrap;html=1;fontSize=15;" vertex="1" parent="1">
          <mxGeometry x="330" y="520" width="100" height="80" as="geometry" />
        </mxCell>
        <mxCell id="QFLeuaDcNy5RBuMiF4bs-25" value="&lt;b&gt;No&lt;/b&gt;" style="text;html=1;align=center;verticalAlign=middle;resizable=0;points=[];autosize=1;strokeColor=none;fillColor=none;fontSize=15;" vertex="1" parent="1">
          <mxGeometry x="340" y="450" width="40" height="30" as="geometry" />
        </mxCell>
      </root>
    </mxGraphModel>
  </diagram>
</mxfile>
